<mxfile host="app.diagrams.net" modified="2022-11-28T05:52:12.370Z" agent="5.0 (Windows NT 10.0; Win64; x64) AppleWebKit/537.36 (KHTML, like Gecko) Chrome/107.0.0.0 Safari/537.36" etag="IfoAx_5moC2ylUFkAXWi" version="20.4.0" type="github">
  <diagram id="4bwuy9F_7Exs5jkwSpId" name="第 1 页">
    <mxGraphModel dx="1024" dy="559" grid="1" gridSize="10" guides="1" tooltips="1" connect="1" arrows="1" fold="1" page="1" pageScale="1" pageWidth="827" pageHeight="1169" math="0" shadow="0">
      <root>
        <mxCell id="0" />
        <mxCell id="1" parent="0" />
        <mxCell id="L-dw7Ir2rHELfsDI23JC-4" style="edgeStyle=orthogonalEdgeStyle;rounded=0;orthogonalLoop=1;jettySize=auto;html=1;exitX=1;exitY=0.5;exitDx=0;exitDy=0;entryX=0;entryY=0.5;entryDx=0;entryDy=0;fontSize=15;" edge="1" parent="1" source="L-dw7Ir2rHELfsDI23JC-1" target="L-dw7Ir2rHELfsDI23JC-3">
          <mxGeometry relative="1" as="geometry" />
        </mxCell>
        <mxCell id="L-dw7Ir2rHELfsDI23JC-5" style="edgeStyle=orthogonalEdgeStyle;rounded=0;orthogonalLoop=1;jettySize=auto;html=1;exitX=1;exitY=0.5;exitDx=0;exitDy=0;entryX=0;entryY=0.5;entryDx=0;entryDy=0;fontSize=15;" edge="1" parent="1" source="L-dw7Ir2rHELfsDI23JC-1" target="L-dw7Ir2rHELfsDI23JC-2">
          <mxGeometry relative="1" as="geometry" />
        </mxCell>
        <mxCell id="L-dw7Ir2rHELfsDI23JC-1" value="在线教育平台" style="rounded=1;whiteSpace=wrap;html=1;fillColor=#dae8fc;strokeColor=#6c8ebf;fontSize=15;" vertex="1" parent="1">
          <mxGeometry x="40" y="190" width="120" height="40" as="geometry" />
        </mxCell>
        <mxCell id="L-dw7Ir2rHELfsDI23JC-2" value="后台管理" style="rounded=1;whiteSpace=wrap;html=1;fillColor=#d5e8d4;strokeColor=#82b366;fontSize=15;" vertex="1" parent="1">
          <mxGeometry x="215" y="270" width="90" height="40" as="geometry" />
        </mxCell>
        <mxCell id="L-dw7Ir2rHELfsDI23JC-3" value="前台网站" style="rounded=1;whiteSpace=wrap;html=1;fillColor=#fff2cc;strokeColor=#d6b656;fontSize=15;" vertex="1" parent="1">
          <mxGeometry x="215" y="90" width="90" height="40" as="geometry" />
        </mxCell>
      </root>
    </mxGraphModel>
  </diagram>
</mxfile>
